<svg width="77" height="75" viewBox="0 0 77 75" fill="none" xmlns="http://www.w3.org/2000/svg">
<path d="M38.8283 22.5705C44.5631 22.5705 49.3688 25.7102 51.0668 30.564L51.307 31.2688H58.6757L58.3233 29.9552C56.0647 21.5934 48.0392 15.7465 38.8123 15.7465C26.7821 15.7465 16.9785 25.3097 16.9785 37.0836C16.9785 48.8575 26.7661 58.4208 38.8123 58.4208C47.9431 58.4208 55.6322 52.7181 57.9229 44.2121L58.2753 42.8985H51.0027L50.7624 43.6033C49.0324 48.5372 44.467 51.5968 38.8123 51.5968C30.5626 51.5968 23.8506 45.0931 23.8506 37.0836C23.8506 29.0742 30.5626 22.5705 38.8123 22.5705H38.8283Z" fill="#F36039"/>
<path d="M38.1415 0C17.2048 0 0.0965642 16.6276 0.000450708 37.0838C-0.047606 46.7111 3.74888 55.858 10.669 62.8262C17.9577 70.1468 27.7132 74.1836 38.1415 74.1836C59.2224 74.1836 76.3786 57.556 76.3786 37.0998C76.2825 16.6597 59.1263 0.0160189 38.1415 0.0160189V0ZM38.1415 67.3435C29.6034 67.3435 21.61 64.0436 15.6669 58.0525C10.0123 52.3658 6.92062 44.917 6.96868 37.0838C7.06479 20.3921 21.0493 6.82406 38.1415 6.82406C55.2337 6.82406 69.3143 20.3921 69.3143 37.0838C69.3623 44.9651 66.2867 52.4299 60.6481 58.0846C54.7211 64.0436 46.7276 67.3275 38.1415 67.3275V67.3435Z" fill="#F36039"/>
</svg>
