<svg width="70" height="35" viewBox="0 0 70 35" fill="none" xmlns="http://www.w3.org/2000/svg">
<path d="M69 35C69.5523 35 70 34.5523 70 34V1C70 0.447715 69.5523 0 69 0H51.4515C50.8992 0 50.4515 0.447715 50.4515 1V4.78116C50.4515 5.75191 49.2076 6.15333 48.6402 5.36572L45.0736 0.415437C44.8856 0.154582 44.5837 0 44.2622 0H26.2258C25.6735 0 25.2258 0.447715 25.2258 1V6.56058C25.2258 7.11287 24.778 7.56058 24.2258 7.56058H20.5485C19.9962 7.56058 19.5485 7.11287 19.5485 6.56058V1C19.5485 0.447716 19.1008 0 18.5485 0H1C0.447717 0 0 0.447715 0 1V7.56058V27.4394V34C0 34.5523 0.447715 35 1 35H18.5485C19.1008 35 19.5485 34.5523 19.5485 34V28.4394C19.5485 27.8871 19.9962 27.4394 20.5485 27.4394H24.2258C24.778 27.4394 25.2258 27.8871 25.2258 28.4394V34C25.2258 34.5523 25.6735 35 26.2258 35H43.7742C44.3265 35 44.7742 34.5523 44.7742 34V27.4394V27.4394C44.7742 27.3394 44.9024 27.2981 44.9608 27.3792L50.1522 34.5846C50.3401 34.8454 50.642 35 50.9635 35H69Z" fill="white"/>
</svg>
